<?xml version="1.0"?>
<svg xmlns="http://www.w3.org/2000/svg" height="512px" viewBox="0 0 496 496" width="512px" class=""><g><path d="m208 56h120v16h-120zm0 0" data-original="#000000" class="active-path" data-old_color="#000000" fill="#2B83EE"/><path d="m208 88h48v16h-48zm0 0" data-original="#000000" class="active-path" data-old_color="#000000" fill="#2B83EE"/><path d="m272 88h56v16h-56zm0 0" data-original="#000000" class="active-path" data-old_color="#000000" fill="#2B83EE"/><path d="m496 248c0-85.609375-43.265625-164.039062-115.726562-209.824219l-8.546876 13.527344c67.792969 42.832031 108.273438 116.207031 108.273438 196.296875 0 33.007812-6.976562 64.40625-19.457031 92.855469-1.238281-.527344-2.4375-1.152344-3.75-1.527344l-32.792969-9.359375v-10.175781c9.65625-7.3125 16-18.785157 16-31.792969v-16c0-22.054688-17.945312-40-40-40s-40 17.945312-40 40v16c0 13.015625 6.34375 24.488281 16 31.792969v10.175781l-32.792969 9.359375c-13.664062 3.902344-23.207031 16.558594-23.207031 30.777344v98.398437c-5.257812 1.71875-10.585938 3.273438-16 4.625v-201.128906h19.710938c10.847656 0 20.386718-7.328125 23.175781-17.816406l28.371093-106.359375c.496094-1.832031.742188-3.726563.742188-6.015625 0-10-6.808594-18.359375-16-20.921875v-96.886719h-161.136719c-3.574219-13.769531-15.992187-24-30.863281-24-15.777344 0-28.832031 11.488281-31.449219 26.527344-83.054687 41.90625-136.550781 128.273437-136.550781 221.472656 0 105.769531 66.574219 196.230469 160 231.816406v.183594h.472656c27.238282 10.3125 56.726563 16 87.527344 16s60.296875-5.6875 87.527344-16h.472656v-.183594c93.425781-35.585937 160-126.046875 160-231.816406zm-120 24c0-13.230469 10.769531-24 24-24s24 10.769531 24 24v16c0 13.230469-10.769531 24-24 24s-24-10.769531-24-24zm-16.191406-128.3125-28.367188 106.375c-.945312 3.496094-4.113281 5.9375-7.730468 5.9375h-35.710938v220.480469c-10.449219 1.824219-21.128906 2.953125-32 3.320312v-151.800781h-16v151.800781c-10.871094-.367187-21.550781-1.496093-32-3.320312v-220.480469h-35.710938c-3.617187 0-6.792968-2.441406-7.730468-5.9375l-28.367188-106.390625c-.128906-.480469-.191406-.976563-.191406-1.863281 0-3.199219 2.601562-5.808594 5.808594-5.808594 2.558594 0 4.800781 1.648438 5.542968 4.097656l30.746094 99.902344h61.902344v-16.808594c2.585938.527344 5.265625.808594 8 .808594s5.414062-.28125 8-.808594v16.808594h61.902344l30.746094-99.902344c.75-2.449218 2.984374-4.097656 5.542968-4.097656 3.199219 0 5.808594 2.601562 5.808594 6.183594 0 .511718-.0625 1.007812-.191406 1.503906zm-191.808594-79.6875c2.777344 0 5.425781-.464844 8-1.136719v12.191407l-8-4-8 4v-12.191407c2.574219.671875 5.222656 1.136719 8 1.136719zm48.207031 80c-5.078125 6.703125-8.207031 14.960938-8.207031 24v16c0 13.128906 6.449219 24.703125 16.246094 32h-.246094v8h-34.097656l-24.605469-80zm55.546875 72c9.796875-7.296875 16.246094-18.871094 16.246094-32v-16c0-9.039062-3.128906-17.296875-8.207031-24h50.902343l-24.605468 80h-34.089844v-8zm.246094-48v16c0 13.230469-10.769531 24-24 24s-24-10.769531-24-24v-16c0-13.230469 10.769531-24 24-24s24 10.769531 24 24zm72-45.488281c-2.558594 1.34375-4.785156 3.230469-6.625 5.488281h-161.375v-35.054688l16 8v-48c3.214844-3.679687 5.601562-8.074218 6.863281-12.945312h145.136719zm-176-106.511719c8.824219 0 16 7.175781 16 16s-7.175781 16-16 16-16-7.175781-16-16 7.175781-16 16-16zm-29.71875 27.6875c1.359375 3.441406 3.328125 6.519531 5.71875 9.257812v48l16-8v35.054688h-1.375c-4.039062-4.945312-10.105469-8-16.824219-8-12.015625 0-21.800781 9.785156-21.800781 22.183594 0 1.90625.246094 3.808594.742188 5.625l28.371093 106.375c2.789063 10.488281 12.328125 17.816406 23.175781 17.816406h19.710938v201.128906c-5.414062-1.34375-10.742188-2.898437-16-4.625v-98.398437c0-14.210938-9.542969-26.867188-23.207031-30.777344l-32.792969-9.359375v-10.175781c9.65625-7.3125 16-18.785157 16-31.792969v-16c0-22.054688-17.945312-40-40-40s-40 17.945312-40 40v16c0 13.015625 6.34375 24.488281 16 31.792969v10.175781l-32.800781 9.359375c-1.3125.375-2.503907 1-3.742188 1.527344-12.480469-28.457031-19.457031-59.847657-19.457031-92.855469 0-85.121094 47.710938-164.128906 122.28125-204.3125zm-66.28125 244.3125v-16c0-13.230469 10.769531-24 24-24s24 10.769531 24 24v16c0 13.230469-10.769531 24-24 24s-24-10.769531-24-24zm72 167.289062v-87.289062h-16v78.480469c-24.742188-15.015625-46.433594-34.550781-64-57.417969v-21.0625h-14.480469c-2.527343-4.167969-4.878906-8.449219-7.152343-12.777344.417968-.160156.800781-.382812 1.234374-.503906l44.398438-12.6875v-14.839844c2.585938.527344 5.265625.808594 8 .808594s5.414062-.28125 8-.808594v14.839844l44.398438 12.6875c6.832031 1.953125 11.601562 8.273438 11.601562 15.386719v92.511719c-5.441406-2.242188-10.777344-4.695313-16-7.328126zm224-8.808593v-78.480469h-16v87.289062c-5.222656 2.632813-10.558594 5.085938-16 7.328126v-92.511719c0-7.113281 4.777344-13.433594 11.601562-15.386719l44.398438-12.6875v-14.839844c2.585938.527344 5.265625.808594 8 .808594s5.414062-.28125 8-.808594v14.839844l44.390625 12.6875c.441406.128906.824219.34375 1.242187.503906-2.265624 4.328125-4.625 8.609375-7.152343 12.777344h-14.480469v21.070312c-17.566406 22.867188-39.257812 42.402344-64 57.410157zm0 0" data-original="#000000" class="active-path" data-old_color="#000000" fill="#2B83EE"/><path d="m408 168h16v16h-16zm0 0" data-original="#000000" class="active-path" data-old_color="#000000" fill="#2B83EE"/><path d="m392 184h16v16h-16zm0 0" data-original="#000000" class="active-path" data-old_color="#000000" fill="#2B83EE"/><path d="m408 200h16v16h-16zm0 0" data-original="#000000" class="active-path" data-old_color="#000000" fill="#2B83EE"/><path d="m424 184h16v16h-16zm0 0" data-original="#000000" class="active-path" data-old_color="#000000" fill="#2B83EE"/><path d="m64 168h16v16h-16zm0 0" data-original="#000000" class="active-path" data-old_color="#000000" fill="#2B83EE"/><path d="m48 184h16v16h-16zm0 0" data-original="#000000" class="active-path" data-old_color="#000000" fill="#2B83EE"/><path d="m64 200h16v16h-16zm0 0" data-original="#000000" class="active-path" data-old_color="#000000" fill="#2B83EE"/><path d="m80 184h16v16h-16zm0 0" data-original="#000000" class="active-path" data-old_color="#000000" fill="#2B83EE"/></g> </svg>
